<?xml version="1.0" encoding="utf-8"?>
<!-- Generator: Adobe Illustrator 22.0.0, SVG Export Plug-In . SVG Version: 6.00 Build 0)  -->
<svg version="1.1" id="Layer_1" xmlns="http://www.w3.org/2000/svg" xmlns:xlink="http://www.w3.org/1999/xlink" x="0px" y="0px"
	 viewBox="0 0 512 512" style="enable-background:new 0 0 512 512;" xml:space="preserve">
<style type="text/css">
	.st0{fill:#FFFFFF;}
</style>
<path d="M284.4,237.8l-35.2-7.8c-13.4-3.1-28.8-7.1-28.8-19.7c0-12.7,10.8-21.5,30.3-21.5c39.3,0,35.7,27,55.3,27
	c10.3,0,19.3-6,19.3-16.4c0-24.2-38.8-42.4-71.7-42.4c-35.7,0-73.8,15.2-73.8,55.6c0,19.5,7,40.2,45.3,49.8l47.6,11.9
	c14.4,3.5,18,11.6,18,18.9c0,12.1-12.1,24-33.9,24c-42.7,0-36.8-32.9-59.7-32.9c-10.3,0-17.7,7.1-17.7,17.2c0,19.7,23.9,46,77.4,46
	c50.9,0,76.1-24.5,76.1-57.4C332.8,268.9,323,246.4,284.4,237.8z"/>
<path d="M256,0C114.6,0,0,114.6,0,256s114.6,256,256,256s256-114.6,256-256S397.4,0,256,0z M389.3,388.9
	c-16.8,16.8-39.2,26.1-63,26.1c-15.4,0-30.5-4-43.8-11.6c-8.7,1.5-17.5,2.3-26.4,2.3c-20.3,0-40-4-58.6-11.8
	c-17.9-7.6-34-18.4-47.9-32.3c-13.8-13.8-24.7-29.9-32.2-47.8c-7.9-18.6-11.8-38.3-11.8-58.6c0-8.7,0.8-17.4,2.3-25.9
	c-7.3-13.2-11.2-28.1-11.2-43.2c0-23.8,9.3-46.2,26.1-63c16.8-16.8,39.2-26.1,63-26.1c14.6,0,29,3.6,41.8,10.4c0,0,0.1,0,0.1,0
	c9.3-1.8,18.9-2.7,28.5-2.7c20.3,0,40,4,58.6,11.8c17.9,7.6,34,18.4,47.8,32.3c13.8,13.8,24.7,29.9,32.3,47.8
	c7.9,18.6,11.8,38.3,11.8,58.6c0,9.2-0.9,18.3-2.5,27.3c7.4,13.2,11.3,28.2,11.3,43.4C415.4,349.7,406.1,372.1,389.3,388.9z"/>
<circle cx="261.5" cy="259.5" r="205.5"/>
<g>
	<g>
		<polygon class="st0" points="303.7,119 302.2,97.9 103.8,111.8 122.5,378.1 140.4,376.9 140.4,147.2 357.9,147.2 357.9,393.3 
			379.6,395.7 408.2,130.3 		"/>
	</g>
</g>
<g>
	<g>
		<path class="st0" d="M159,165.7v248.4h180.4V165.7H159z M218.4,208c11.4,0,20.4,4.2,26.2,11.7l-12.4,11.1
			c-3.4-4.3-7.5-6.8-12.8-6.8c-8.2,0-13.7,5.7-13.7,14.6s5.5,14.6,13.7,14.6c5.3,0,9.3-2.5,12.8-6.8l12.4,11.1
			c-5.8,7.5-14.8,11.7-26.2,11.7c-18.8,0-32.5-12.6-32.5-30.5C185.8,220.6,199.6,208,218.4,208z M309.6,374.9H188.7v-18.5h120.9
			L309.6,374.9L309.6,374.9z M309.6,342H188.7v-18.5h120.9L309.6,342L309.6,342z M309.6,309H188.7v-18.5h120.9L309.6,309L309.6,309z
			 M288,267.7h-19.4l-24.7-58.4h21.2l13.9,34.1l14.3-34.1h19.4L288,267.7z"/>
	</g>
</g>
</svg>
