<?xml version="1.0" encoding="utf-8"?>
<!-- Generator: Adobe Illustrator 22.0.0, SVG Export Plug-In . SVG Version: 6.00 Build 0)  -->
<svg version="1.1" id="Layer_1" xmlns="http://www.w3.org/2000/svg" xmlns:xlink="http://www.w3.org/1999/xlink" x="0px" y="0px"
	 viewBox="0 0 67 67" style="enable-background:new 0 0 67 67;" xml:space="preserve">
<style type="text/css">
	.st0{fill:#2A2A2A;}
	.st1{fill:#FFFFFF;stroke:#FFFFFF;stroke-width:2;stroke-miterlimit:10;}
</style>
<path class="st0" d="M34.8,46.4c-4.8,0.3-7.1-0.8-9.1-2.8c-2.3-2.2-1.4-4.7,0.5-4.9c1.9-0.1,3,2.2,4,2.8c1,0.6,4.8,2.1,6.8-0.3
	c2.2-2.6-1.5-3.9-4.1-4.3c-3.8-0.6-8.6-2.7-8.3-6.8c0.4-4.1,3.5-6.3,6.7-6.6c4.1-0.4,6.8,0.6,9,2.5c2.5,2.1,1.1,4.5-0.4,4.7
	c-1.6,0.2-3.3-3.5-6.8-3.6c-3.6-0.1-6,3.8-1.6,4.9c4.4,1.1,9.1,1.5,10.8,5.6C44,41.8,39.7,46.1,34.8,46.4z M48.4,36.7
	c0.1-0.7,0.1-1.4,0.1-2.1c0-8.4-6.8-15.3-15.2-15.3c-0.8,0-1.6,0.1-2.4,0.2C29.6,18.5,27.9,18,26,18c-5,0-9,4.1-9,9.2
	c0,1.8,0.5,3.6,1.5,5c-0.1,0.8-0.2,1.6-0.2,2.4c0,8.4,6.8,15.3,15.2,15.3c0.9,0,1.9-0.1,2.8-0.3c1.4,0.9,3,1.4,4.8,1.4
	c5,0,9-4.1,9-9.2C50,39.9,49.4,38.1,48.4,36.7z M33,64C16.4,64,3,50.6,3,34C3,17.4,16.4,4,33,4s30,13.4,30,30C63,50.6,49.6,64,33,64
	z"/>
<circle class="st0" cx="33.5" cy="34" r="23.1"/>
<path class="st1" d="M52.1,27.4l-18.5-9.2c-0.4-0.2-0.9-0.2-1.4,0l-18.5,9.2c-0.3,0.1-0.5,0.4-0.4,0.7c0.1,0.2,0.2,0.3,0.4,0.4
	l2.8,1.4h-0.1v15.4c-0.2,0.1-0.4,0.3-0.5,0.5l-1.2,2.4c-0.3,0.6-0.1,1.3,0.5,1.6c0.2,0.1,0.4,0.1,0.5,0.1h2.4c0.7,0,1.2-0.5,1.2-1.2
	c0-0.2,0-0.4-0.1-0.6l-1.2-2.4c-0.1-0.2-0.3-0.4-0.5-0.5V30.4l3,1.5v7.5c0,1.7,1.3,3.3,3.7,4.5c2.3,1.1,5.3,1.8,8.6,1.8
	s6.3-0.6,8.6-1.8c2.4-1.2,3.7-2.8,3.7-4.5v-7.5l6.9-3.5c0.3-0.1,0.5-0.4,0.4-0.7C52.5,27.6,52.3,27.4,52.1,27.4L52.1,27.4z
	 M18.3,48.8h-2.4l1.2-2.4L18.3,48.8z M44,39.5c0,1.2-1.1,2.4-3,3.4c-2.1,1.1-5,1.6-8,1.6s-5.9-0.6-8-1.6c-1.9-1-3-2.2-3-3.4v-6.9
	l10.3,5.2c0.4,0.2,0.9,0.2,1.4,0L44,32.5V39.5z M33.1,36.6c0,0-0.1,0-0.1,0c0,0-0.1,0-0.1,0l-17.4-8.7l17.4-8.7c0,0,0.1,0,0.1,0
	c0,0,0.1,0,0.1,0l17.4,8.7L33.1,36.6z"/>
</svg>
