<?xml version="1.0" encoding="utf-8"?>
<!-- Generator: Adobe Illustrator 22.0.0, SVG Export Plug-In . SVG Version: 6.00 Build 0)  -->
<svg version="1.1" id="Layer_1" xmlns="http://www.w3.org/2000/svg" xmlns:xlink="http://www.w3.org/1999/xlink" x="0px" y="0px"
	 viewBox="0 0 67 67" style="enable-background:new 0 0 67 67;" xml:space="preserve">
<style type="text/css">
	.st0{fill:#2A2A2A;}
	.st1{fill:#FFFFFF;}
</style>
<path class="st0" d="M50.8,48.1V36.4c0-6.3-3.3-9.2-7.8-9.2c-3.6,0-5.2,2-6.1,3.4v-2.9h-6.8c0.1,1.9,0,20.4,0,20.4h6.8V36.7
	c0-0.6,0-1.2,0.2-1.7c0.5-1.2,1.6-2.5,3.5-2.5c2.5,0,3.4,1.9,3.4,4.6v10.9L50.8,48.1L50.8,48.1z M23,24.9c2.4,0,3.8-1.6,3.8-3.5
	c0-2-1.5-3.5-3.8-3.5s-3.8,1.5-3.8,3.5C19.2,23.4,20.6,24.9,23,24.9L23,24.9z M34,64C17.4,64,4,50.6,4,34C4,17.4,17.4,4,34,4
	s30,13.4,30,30C64,50.6,50.6,64,34,64z M26.4,48.1V27.7h-6.8v20.4H26.4z"/>
<g id="Page-1">
	<g id="Mail">
		<g id="XMLID_27_">
			<circle class="st0" cx="35.6" cy="35.6" r="24.6"/>
			<path id="XMLID_285_" class="st1" d="M49.3,23.8l-0.4,0.4l-0.4,0.4L34.3,38.1l-14-13.4l-0.4-0.4l-0.4-0.4
				c0.4-0.3,0.9-0.4,1.4-0.4h27.1C48.4,23.4,48.9,23.5,49.3,23.8z"/>
			<path id="XMLID_281_" class="st1" d="M50.4,25.9v19.9c0,1.4-1.1,2.5-2.5,2.5H20.8c-1.4,0-2.5-1.1-2.5-2.5V25.9
				c0-0.3,0-0.6,0.1-0.8l0.5,0.4l0.5,0.5l14.8,14.2L49.2,26l0.5-0.5l0.5-0.4C50.3,25.3,50.4,25.6,50.4,25.9z"/>
		</g>
	</g>
</g>
</svg>
