<?xml version="1.0" encoding="utf-8"?>
<!-- Generator: Adobe Illustrator 22.0.0, SVG Export Plug-In . SVG Version: 6.00 Build 0)  -->
<svg version="1.1" xmlns="http://www.w3.org/2000/svg" xmlns:xlink="http://www.w3.org/1999/xlink" x="0px" y="0px"
	 viewBox="0 0 1024 1024" style="enable-background:new 0 0 1024 1024;" xml:space="preserve">
<style type="text/css">
	.st0{fill:none;stroke:#231F20;stroke-width:30;stroke-linecap:round;stroke-linejoin:round;stroke-miterlimit:10;}
	.st1{fill:#FFFFFF;stroke:#231F20;stroke-width:30;stroke-linecap:round;stroke-linejoin:round;stroke-miterlimit:10;}
	.st2{fill:#383838;}
	.st3{fill:none;stroke:#231F20;stroke-width:20;stroke-linecap:round;stroke-linejoin:round;stroke-miterlimit:10;}
	.st4{fill:#FCFCFC;stroke:#231F20;stroke-width:30;stroke-linecap:round;stroke-linejoin:round;stroke-miterlimit:10;}
	.st5{fill:#231F20;stroke:#7439D1;stroke-width:30;stroke-linecap:round;stroke-linejoin:round;stroke-miterlimit:10;}
	.st6{fill:#3F3F3F;}
	.st7{fill:#D1D3D4;stroke:#3D3D3D;stroke-width:30;stroke-linecap:round;stroke-linejoin:round;stroke-miterlimit:10;}
</style>
<g id="Layer_2">
</g>
<g id="Layer_1">
	<g>
		<g>
			<polygon class="st0" points="930,994.8 687.1,506.3 687.1,67.1 342.9,67.1 342.9,506.4 100,994.8 			"/>
			<line class="st1" x1="255.2" y1="67.1" x2="774.8" y2="67.1"/>
			<path class="st2" d="M434,797.9c0,29.3-21.2,53-47.2,53c-26.1,0-47.2-23.7-47.2-53c0-29.3,21.1-53,47.2-53
				C412.9,744.9,434,768.6,434,797.9z"/>
			<path class="st2" d="M665,696.5c0,46.5-33.6,84.2-75,84.2s-75-37.7-75-84.2c0-46.5,33.5-84.1,75-84.1S665,650,665,696.5z"/>
		</g>
		<line class="st3" x1="343" y1="416" x2="687" y2="416"/>
	</g>
	<g>
		<rect x="2811.9" y="118.9" class="st1" width="671.2" height="904.1"/>
		<rect x="2904.4" y="41.6" class="st4" width="485" height="175.9"/>
		<line class="st5" x1="2954.4" y1="393.9" x2="3297.6" y2="393.9"/>
		<line class="st5" x1="2954.4" y1="579.8" x2="3114.1" y2="579.8"/>
	</g>
	<g>
		<path class="st1" d="M-536,443c0-156.3-126.7-283-283-283c-156.3,0-283,126.7-283,283c0,123.9,79.7,228.9,190.6,267.3V922h184.7
			V710.2C-615.7,671.9-536,566.9-536,443z"/>
		<rect x="-940.5" y="790" class="st6" width="246" height="96"/>
		<line class="st7" x1="-818.9" y1="-65" x2="-818.9" y2="1"/>
		<line class="st7" x1="-479" y1="65.5" x2="-520.9" y2="116.5"/>
		<line class="st7" x1="-1168.9" y1="65.5" x2="-1127.1" y2="116.5"/>
	</g>
	<g>
	</g>
	<g>
	</g>
	<g>
	</g>
	<g>
	</g>
	<g>
	</g>
	<g>
	</g>
	<g>
	</g>
	<g>
	</g>
	<g>
	</g>
	<g>
	</g>
	<g>
	</g>
	<g>
	</g>
	<g>
	</g>
	<g>
	</g>
	<g>
	</g>
</g>
</svg>
