<?xml version="1.0" encoding="utf-8"?>
<!-- Generator: Adobe Illustrator 22.0.0, SVG Export Plug-In . SVG Version: 6.00 Build 0)  -->
<svg version="1.1" id="Layer_1" xmlns="http://www.w3.org/2000/svg" xmlns:xlink="http://www.w3.org/1999/xlink" x="0px" y="0px"
	 viewBox="0 0 512 512" style="enable-background:new 0 0 512 512;" xml:space="preserve">
<style type="text/css">
	.st0{fill:#28253A;}
	.st1{fill:#37C5FF;}
	.st2{fill:none;stroke:#37C5FF;stroke-width:10;stroke-miterlimit:10;}
</style>
<path class="st0" d="M484.7,162.6c12.3,29.8,18.6,61.3,18.6,94.1s-6.3,64.3-18.6,94.1c-12.3,29.8-30.3,56.6-53.8,79.9
	c-23.5,23.5-50.1,41.2-79.9,53.6c-29.8,12.3-61.3,18.6-94.1,18.6c-32.9,0-64.3-6.3-94.1-18.6c-29.8-12.3-56.6-30.3-79.9-53.6
	c-23.3-23.3-41.2-50.1-53.6-79.9s-18.6-61.3-18.6-94.1s6.1-64.3,18.6-94.1c12.3-29.8,30.3-56.6,53.6-79.9s50.1-41.2,79.9-53.6
	s61.3-18.6,94.1-18.6s64.3,6.1,94.1,18.6c29.8,12.3,56.6,30.3,79.9,53.6C454.4,106,472.1,132.8,484.7,162.6z M380.1,302.6
	c0-11-3.3-19.3-9.8-25.4c-6.8-6.1-18.4-11.2-35.4-15.1c-16.5-4.2-26.1-7.5-28.9-9.8c-2.1-1.6-3-3.7-3-6.1c0-3.3,1.2-5.6,3.5-7
	c3.5-2.6,9.3-4,17.5-4c6.5,0,11.9,1.4,15.4,4.2c3.5,2.8,5.8,6.5,7,11.4l29.6-6.1c-3-11.4-8.4-20-16.5-25.6
	c-7.7-5.8-19.6-8.6-36.1-8.6c-17,0-29.6,4-37.5,11.6s-11.9,17-11.9,28c0,12.6,4.7,22.1,14,28.9c6.8,5.1,22.8,10.7,48.5,17
	c5.1,1.4,8.6,3,10.3,4.4c1.4,1.9,2.1,4,2.1,6.5c0,3.7-1.2,6.8-3.7,9.1c-4.2,3.3-10.3,4.9-18.2,4.9c-7.7,0-13.5-1.9-17.5-5.1
	c-4-3.5-6.8-8.6-7.9-15.1l-31.9,5.4c3.3,12.6,9.3,22.1,18.6,29.1c9.6,7.2,22.1,11,38.2,11c17.7,0,31.2-4.2,40.3-12.8
	C375.4,324.8,380.1,314.5,380.1,302.6z M258.7,219.4c0-14.2-3.3-25.6-9.8-34.7c-6.3-9.1-14.2-14.7-23.5-17.5
	c-6.1-1.6-19.1-2.6-39.4-2.6h-52.4v178h32.9v-66.9h21.7c14.9,0,26.3-0.9,33.8-2.6c6.1-1.4,11.9-4.2,17.5-8.2
	c5.6-4.2,10.3-10.3,14-17.9C257,239.7,258.7,230.4,258.7,219.4z"/>
<rect x="101.7" y="152.5" class="st0" width="288.8" height="192.7"/>
<path class="st0" d="M224.6,219.2c0,5.4-1.4,10.2-4,14.4c-2.8,3.8-6.1,6.8-10.6,9.2c-4.3,1.7-13.2,2.6-26.4,2.6h-18.2v-51.2h16.1
	c12,0,19.8,0.5,23.8,1.4c5.4,0.9,10.2,3.5,13.7,7.8C222.4,207.6,224.6,212.8,224.6,219.2z"/>
<path class="st1" d="M371.8,277.5c6.6,6.1,9.9,14.6,9.9,25.7c0,12-4.7,22.2-13.9,30.9c-9.2,8.5-22.9,13-40.8,13
	c-16.1,0-29-3.8-38.7-11.1c-9.4-7.1-15.8-17-18.9-29.5l32.3-5.4c1.4,6.8,4,11.8,8,15.3c4,3.5,9.9,5.2,17.7,5.2c8,0,14.2-1.7,18.4-5
	c2.6-2.1,3.8-5.2,3.8-9.2c0-2.6-0.7-4.7-2.1-6.6c-1.7-1.4-5.2-3.1-10.4-4.5c-25.7-6.1-42-12-49.1-17.2c-9.4-6.8-14.2-16.8-14.2-29.3
	c0-11.1,4-20.5,12-28.3c8.3-8,21-11.8,38-11.8c16.8,0,28.8,3.1,36.6,8.7c8,5.7,13.7,14.4,16.8,26l-30,6.1c-1.2-5-3.5-9-7.1-11.6
	c-3.8-2.8-9-4.3-15.6-4.3c-8.3,0-14.2,1.4-17.7,4c-2.4,1.4-3.5,3.8-3.5,7.1c0,2.4,0.9,4.5,3.1,6.1c2.8,2.4,12.8,5.7,29.3,9.9
	C353.1,266.2,365.2,271.4,371.8,277.5z"/>
<path class="st1" d="M250.8,181.8c6.6,9.2,9.9,20.8,9.9,35.2c0,11.1-1.9,20.5-5.2,28.1c-3.8,7.8-8.5,13.9-14.2,18.2
	c-5.7,4-11.6,6.8-17.7,8.3c-7.8,1.7-19.1,2.6-34.2,2.6h-22v68.2h-33.5V161.9h53.4c20.5,0,33.8,0.7,39.9,2.6
	C236.6,166.9,244.4,172.8,250.8,181.8z M222.7,231.6c2.6-4.3,4-9,4-14.4c0-6.4-1.9-11.8-5.9-15.8c-3.5-4.3-8-6.8-13.7-7.8
	c-3.8-0.9-11.8-1.4-23.8-1.4h-16.1v51.2h18.2c13.2,0,22.2-0.9,26.4-2.6C216.3,238.4,219.8,235.4,222.7,231.6z"/>
<path class="st2" d="M161.2,487.6c-30.2-12.5-57.4-30.7-81-54.3s-41.8-50.8-54.3-81S7,290.3,7,257s6.1-65.2,18.9-95.4
	c12.5-30.2,30.7-57.4,54.3-81s50.8-41.8,81-54.3s62.1-18.9,95.4-18.9s65.2,6.1,95.4,18.9c30.2,12.5,57.4,30.7,81,54.3
	c23.8,23.6,41.8,50.8,54.5,81c12.5,30.2,18.9,62.1,18.9,95.4s-6.4,65.2-18.9,95.4c-12.5,30.2-30.7,57.4-54.5,81
	c-23.8,23.8-50.8,41.8-81,54.3c-30.2,12.5-62.1,18.9-95.4,18.9C223.3,506.5,191.6,500.2,161.2,487.6z"/>
</svg>
