<?xml version="1.0" encoding="utf-8"?>
<!-- Generator: Adobe Illustrator 22.0.0, SVG Export Plug-In . SVG Version: 6.00 Build 0)  -->
<svg version="1.1" id="Layer_1" xmlns="http://www.w3.org/2000/svg" xmlns:xlink="http://www.w3.org/1999/xlink" x="0px" y="0px"
	 viewBox="0 0 512 512" style="enable-background:new 0 0 512 512;" xml:space="preserve">
<style type="text/css">
	.st0{fill:#FDB300;}
	.st1{fill:#EA6C00;}
	.st2{fill:#FDAD00;}
	.st3{fill:#FDD231;}
	.st4{fill:#FEEEB7;}
</style>
<g>
	<path class="st0" d="M113.9,50.4l141.7-15l141.7,15L507,197.7L255.6,490.4L4.2,197.7L113.9,50.4z"/>
	<g transform="translate(59.000000, 211.881084)">
		<polygon class="st1" points="47,-14.2 196.6,278.5 -54.8,-14.2 		"/>
		<polygon class="st1" points="346.2,-14.2 196.6,278.5 448,-14.2 		"/>
		<polygon class="st2" points="47,-14.2 346.2,-14.2 196.6,278.5 		"/>
	</g>
	<g transform="translate(59.000000, 85.000000)">
		<polygon class="st3" points="196.6,-49.6 54.9,-34.6 47,112.7 		"/>
		<polygon class="st3" points="196.6,-49.6 338.3,-34.6 346.2,112.7 		"/>
		<polygon class="st2" points="448,112.7 338.3,-34.6 346.2,112.7 		"/>
		<polygon class="st2" points="-54.8,112.7 54.9,-34.6 47,112.7 		"/>
		<polygon class="st4" points="196.6,-49.6 47,112.7 346.2,112.7 		"/>
	</g>
</g>
</svg>
