<?xml version="1.0" encoding="utf-8"?>
<!-- Generator: Adobe Illustrator 22.0.0, SVG Export Plug-In . SVG Version: 6.00 Build 0)  -->
<svg version="1.1" xmlns="http://www.w3.org/2000/svg" xmlns:xlink="http://www.w3.org/1999/xlink" x="0px" y="0px"
	 viewBox="0 0 1024 1024" style="enable-background:new 0 0 1024 1024;" xml:space="preserve">
<style type="text/css">
	.st0{fill:none;stroke:#231F20;stroke-width:30;stroke-linecap:round;stroke-linejoin:round;stroke-miterlimit:10;}
	.st1{fill:#FFFFFF;stroke:#231F20;stroke-width:30;stroke-linecap:round;stroke-linejoin:round;stroke-miterlimit:10;}
	.st2{fill:#693FAA;}
	.st3{fill:none;stroke:#231F20;stroke-width:20;stroke-linecap:round;stroke-linejoin:round;stroke-miterlimit:10;}
	.st4{fill:#FCFCFC;stroke:#231F20;stroke-width:30;stroke-linecap:round;stroke-linejoin:round;stroke-miterlimit:10;}
	.st5{fill:#231F20;stroke:#7439D1;stroke-width:30;stroke-linecap:round;stroke-linejoin:round;stroke-miterlimit:10;}
	.st6{fill:#3F3F3F;}
	.st7{fill:#D1D3D4;stroke:#3D3D3D;stroke-width:30;stroke-linecap:round;stroke-linejoin:round;stroke-miterlimit:10;}
</style>
<g id="Layer_2">
</g>
<g id="Layer_1">
	<g>
		<g>
			<polygon class="st0" points="2620,1034.8 2377.1,546.3 2377.1,107.1 2032.9,107.1 2032.9,546.4 1790,1034.8 			"/>
			<line class="st1" x1="1945.2" y1="107.1" x2="2464.8" y2="107.1"/>
			<path class="st2" d="M2124,837.9c0,29.3-21.2,53-47.2,53c-26.1,0-47.2-23.7-47.2-53c0-29.3,21.1-53,47.2-53
				C2102.9,784.9,2124,808.6,2124,837.9z"/>
			<path class="st2" d="M2355,736.5c0,46.5-33.6,84.2-75,84.2s-75-37.7-75-84.2c0-46.5,33.5-84.1,75-84.1S2355,690,2355,736.5z"/>
		</g>
		<line class="st3" x1="2033" y1="456" x2="2377" y2="456"/>
	</g>
	<g>
		<rect x="2811.9" y="118.9" class="st1" width="671.2" height="904.1"/>
		<rect x="2904.4" y="41.6" class="st4" width="485" height="175.9"/>
		<line class="st5" x1="2954.4" y1="393.9" x2="3297.6" y2="393.9"/>
		<line class="st5" x1="2954.4" y1="579.8" x2="3114.1" y2="579.8"/>
	</g>
	<g>
		<path class="st1" d="M799,527c0-156.3-126.7-283-283-283c-156.3,0-283,126.7-283,283c0,123.9,79.7,228.9,190.6,267.3V1006h184.7
			V794.2C719.3,755.9,799,650.9,799,527z"/>
		<rect x="394.5" y="874" class="st6" width="246" height="96"/>
		<line class="st7" x1="516.1" y1="19" x2="516.1" y2="85"/>
		<line class="st7" x1="856" y1="149.5" x2="814.1" y2="200.5"/>
		<line class="st7" x1="166.1" y1="149.5" x2="207.9" y2="200.5"/>
	</g>
	<g>
	</g>
	<g>
	</g>
	<g>
	</g>
	<g>
	</g>
	<g>
	</g>
	<g>
	</g>
	<g>
	</g>
	<g>
	</g>
	<g>
	</g>
	<g>
	</g>
	<g>
	</g>
	<g>
	</g>
	<g>
	</g>
	<g>
	</g>
	<g>
	</g>
</g>
</svg>
