<?xml version="1.0" encoding="utf-8"?>
<!-- Generator: Adobe Illustrator 22.0.0, SVG Export Plug-In . SVG Version: 6.00 Build 0)  -->
<svg version="1.1" id="Layer_1" xmlns="http://www.w3.org/2000/svg" xmlns:xlink="http://www.w3.org/1999/xlink" x="0px" y="0px"
	 viewBox="0 0 1024 1024" style="enable-background:new 0 0 1024 1024;" xml:space="preserve">
<style type="text/css">
	.st0{fill:#FF2BC2;}
	.st1{fill:#2E001E;}
</style>
<path class="st0" d="M977.8,319.2c25.3,61.1,38.2,125.6,38.2,192.9s-12.9,131.8-38.2,192.9c-25.3,61.1-62.1,116-109.8,163.7
	c-47.7,48.2-102.6,84.5-163.7,109.8s-125.6,38.2-192.9,38.2s-131.8-12.9-192.9-38.2s-116-62.1-163.7-109.8
	C106.6,821,70.3,766.1,45,705S6.8,579.4,6.8,512.1S19.2,380.3,45,319.2c25.3-61.1,62.1-116,109.8-163.7S257.4,71,318.5,45.7
	S444.1,7.5,511.4,7.5s131.8,12.4,192.9,38.2c61.1,25.3,116,62.1,163.7,109.8C916.2,203.2,952.5,258.1,977.8,319.2z M763,673
	c0-0.5,0-1.4,0-2.4c-1-12.9-1.4-24.3-1.4-33.4V323.5c0-1-0.5-1.9-1-2.4s-1.4-1-2.9-1h-55.4c-1,0-1.9,0.5-2.4,1s-1,1.4-1,2.4v89.3
	c-3.8-0.5-6.7-0.5-9.1-1c-2.4,0-5.3-0.5-9.1-0.5c-42,0-75.4,13.8-99.8,41.5c-24.3,27.7-36.8,61.6-36.8,101.7
	c0,46.8,11.9,81.2,35.8,104.5c23.9,22.9,54.9,34.4,92.1,34.4c29.1,0,58.2-6.7,87.8-20.1C762.5,673.9,763,673.5,763,673z
	 M525.2,689.7c0.5-1.4,0-2.4-0.5-4.3l-96.4-186.2L519,325.4c1.4-3.8,0.5-5.7-2.4-5.7h-54.9c-1.9,0-2.9,0.5-3.8,1.4
	c-1,1-1.4,1.9-1.9,2.9v0.5c-6.2,11.9-11.9,24.3-17.7,36.8c-15.3,32.9-30.6,65.9-45.4,99.3h-1c-15.3-33.9-31-66.8-46.8-100.3
	c-5.7-12.4-11.5-24.3-17.2-36.3c-0.5-1.9-1-2.9-1.9-3.3c-1-0.5-2.4-1-4.3-1h-58.7c-1.4,0-2.4,0.5-2.9,1.9s-0.5,2.4,0.5,3.8
	l90.7,179.5l-94,180.9c-1,1-1.4,1.9-1,2.9c0.5,1,1.4,1.4,2.9,1.4h56.3c2.9,0,5.3-1,6.7-2.9c22.4-46.8,44.4-94,65.9-141.3h0.5
	c23.4,48.2,45.4,95.5,67.3,140.8c0.5,1.4,1,2.4,2.4,3.3c1.4,1,2.9,1.4,4.8,1.4h59.2C523.8,691.6,525.2,690.6,525.2,689.7z"/>
<path class="st1" d="M947.7,331.7c23.7,57.2,35.7,117.4,35.7,180.4s-12.1,123.2-35.7,180.4S889.6,801,845,845.7
	c-44.7,45.1-96,79-153.2,102.7s-117.4,35.7-180.4,35.7S388.2,972,331,948.4s-108.5-58-153.2-102.7c-45.1-44.7-79-96-102.7-153.2
	S39.4,575.1,39.4,512.1S51,388.9,75.1,331.7c23.7-57.2,58-108.5,102.7-153.2s96-79,153.2-102.7s117.4-35.7,180.4-35.7
	s123.2,11.6,180.4,35.7c57.2,23.7,108.5,58,153.2,102.7C890,223.2,924,274.6,947.7,331.7z M746.7,662.6c0-0.4,0-1.3,0-2.2
	c-0.9-12.1-1.3-22.8-1.3-31.3V335.7c0-0.9-0.4-1.8-0.9-2.2c-0.4-0.4-1.3-0.9-2.7-0.9H690c-0.9,0-1.8,0.4-2.2,0.9
	c-0.4,0.4-0.9,1.3-0.9,2.2v83.5c-3.6-0.4-6.3-0.4-8.5-0.9c-2.2,0-4.9-0.4-8.5-0.4c-39.3,0-70.6,12.9-93.3,38.8
	c-22.8,25.9-34.4,57.6-34.4,95.1c0,43.8,11.2,75.9,33.5,97.8c22.3,21.4,51.3,32.1,86.2,32.1c27.2,0,54.5-6.3,82.2-18.8
	C746.3,663.5,746.7,663,746.7,662.6z M524.3,678.2c0.4-1.3,0-2.2-0.4-4L433.7,500l84.8-162.5c1.3-3.6,0.4-5.4-2.2-5.4H465
	c-1.8,0-2.7,0.4-3.6,1.3c-0.9,0.9-1.3,1.8-1.8,2.7v0.4c-5.8,11.2-11.2,22.8-16.5,34.4c-14.3,30.8-28.6,61.6-42.4,92.9h-0.9
	c-14.3-31.7-29-62.5-43.8-93.8c-5.4-11.6-10.7-22.8-16.1-33.9c-0.4-1.8-0.9-2.7-1.8-3.1c-0.9-0.4-2.2-0.9-4-0.9h-54.9
	c-1.3,0-2.2,0.4-2.7,1.8c-0.4,1.3-0.4,2.2,0.4,3.6l84.8,167.9l-88,169.2c-0.9,0.9-1.3,1.8-0.9,2.7c0.4,0.9,1.3,1.3,2.7,1.3h52.7
	c2.7,0,4.9-0.9,6.3-2.7c21-43.8,41.5-88,61.6-132.2h0.4c21.9,45.1,42.4,89.3,63,131.7c0.4,1.3,0.9,2.2,2.2,3.1
	c1.3,0.9,2.7,1.3,4.5,1.3h55.4C523,680,524.3,679.1,524.3,678.2z"/>
<path class="st0" d="M747.4,660.5c0,0.9,0,1.8,0,2.2s-0.9,0.9-1.8,1.3c-27.7,12.5-55,18.8-82.2,18.8c-34.9,0-63.9-10.7-86.3-32.2
	c-22.3-21.5-33.5-54.1-33.5-97.9c0-37.5,11.6-69.3,34.4-95.2c22.8-25.9,54.1-38.9,93.4-38.9c3.6,0,6.3,0,8.5,0.4
	c2.2,0,4.9,0.4,8.5,0.9v-83.6c0-0.9,0-1.8,0.9-2.2c0.4-0.4,1.3-0.9,2.2-0.9h52.3c1.3,0,2.2,0,2.7,0.9c0.4,0.4,0.9,1.3,0.9,2.2v293.6
	C746,637.7,746.5,648.4,747.4,660.5z M687,628.8l0.4-159.1c-4.9-2.2-11.2-3.6-18.8-3.6c-45.1,3.6-67.9,31.3-67.9,83.1
	c0,29.5,6.3,51,18.3,63.9c12.1,13,27.3,19.2,45.1,19.2C672.3,632.8,679.9,631.4,687,628.8z"/>
<path class="st1" d="M687.5,469.6L687,628.8c-7.2,2.7-14.7,4-22.3,4c-17.9,0-33.1-6.3-45.1-19.2c-12.5-13-18.3-34-18.3-63.9
	c0-51.8,22.8-79.6,67.9-83.1C676.3,466.5,682.6,467.4,687.5,469.6z"/>
<path class="st0" d="M523.9,674.3c0.9,1.8,0.9,3.1,0.4,4c-0.4,0.9-1.3,1.8-2.7,1.8h-55.4c-1.8,0-3.6-0.4-4.5-1.3
	c-1.3-0.9-1.8-1.8-2.2-3.1c-20.6-42.5-41.6-86.7-63-131.8h-0.4c-20.1,44.2-40.7,88.5-61.7,132.3c-1.3,1.8-3.6,2.7-6.3,2.7h-52.7
	c-1.8,0-2.7-0.4-2.7-1.3c-0.4-0.9,0-1.8,0.9-2.7l88-169.4l-84.9-168.1c-0.9-1.3-1.3-2.7-0.4-3.6c0.4-1.3,1.8-1.8,2.7-1.8h55
	c1.8,0,3.1,0.4,4,0.9c0.9,0.4,1.3,1.3,1.8,3.1c5.4,11.2,10.7,22.3,16.1,34c15.2,30.8,29.5,62.1,43.8,93.9h0.4
	c13.9-30.8,28.2-61.7,42.5-93c5.4-11.6,10.7-23.2,16.5-34.4V336c0.4-0.9,0.9-1.8,1.8-2.7c0.9-0.9,2.2-1.3,3.6-1.3h51.4
	c2.7,0,3.6,1.8,2.2,5.4L433.2,500L523.9,674.3z"/>
<g>
</g>
<g>
</g>
<g>
</g>
<g>
</g>
<g>
</g>
<g>
</g>
<g>
</g>
<g>
</g>
<g>
</g>
<g>
</g>
<g>
</g>
<g>
</g>
<g>
</g>
<g>
</g>
<g>
</g>
</svg>
