<?xml version="1.0" encoding="utf-8"?>
<!-- Generator: Adobe Illustrator 23.0.1, SVG Export Plug-In . SVG Version: 6.00 Build 0)  -->
<svg version="1.1" xmlns="http://www.w3.org/2000/svg" xmlns:xlink="http://www.w3.org/1999/xlink" x="0px" y="0px"
	 viewBox="0 0 200.2 20" style="enable-background:new 0 0 200.2 20;" xml:space="preserve">
<style type="text/css">
	.st0{display:none;}
</style>
<g id="Livello_2">
</g>
<g id="Livello_1">
	<path class="st0" d="M8.4,19.1l-1-2.3H0.2l-1,2.3h-3.9l7.9-18h1.2l7.9,18H8.4z M6.1,13.8l-2.4-6l-2.4,6H6.1z"/>
	<path class="st0" d="M37.6,13.9c0,1.5-0.5,2.8-1.6,3.7s-2.5,1.5-4.2,1.5h-7.9V1.4h6.3c1.6,0,3,0.5,4,1.4s1.6,2.1,1.6,3.5
		c0,1.3-0.4,2.4-1.3,3.2C36.6,10.3,37.6,11.7,37.6,13.9z M29.9,4.5h-2.5v4h2.5c0.7,0,1.3-0.2,1.7-0.5c0.4-0.4,0.6-0.9,0.6-1.5
		S32,5.4,31.6,5C31.2,4.7,30.7,4.5,29.9,4.5z M34.1,13.7c0-0.7-0.2-1.2-0.7-1.6c-0.4-0.4-1.1-0.6-1.8-0.6h-4.1v4.4h4.1
		c0.8,0,1.4-0.2,1.8-0.6C33.9,15,34.1,14.4,34.1,13.7z"/>
	<path class="st0" d="M48.9,10.2c0-2.5,0.9-4.7,2.7-6.5c1.9-1.8,4.1-2.7,6.6-2.6C60.7,1,63,1.9,64.8,3.7c1.9,1.8,2.8,4,2.8,6.5
		s-0.9,4.7-2.8,6.5c-1.9,1.8-4.1,2.7-6.6,2.6c-2.5,0.1-4.8-0.8-6.6-2.6S48.9,12.7,48.9,10.2z M63.9,10.2c0-1.7-0.5-3.1-1.6-4.2
		s-2.4-1.6-4-1.6s-3,0.5-4.1,1.6s-1.6,2.5-1.6,4.2s0.5,3.1,1.6,4.2s2.4,1.6,4.1,1.6c1.6,0,3-0.5,4-1.6
		C63.4,13.3,63.9,11.9,63.9,10.2z"/>
	<path class="st0" d="M79.9,11.8V1.4h3.6V12c0,1.3,0.4,2.2,1.1,3c0.7,0.7,1.6,1.1,2.8,1.1s2.1-0.4,2.8-1.1s1.1-1.7,1.1-3V1.4h3.6
		v10.3c0,2.3-0.7,4.1-2.1,5.5c-1.4,1.4-3.2,2.1-5.4,2.1s-4-0.7-5.4-2.1C80.6,15.9,79.9,14.1,79.9,11.8z"/>
	<path class="st0" d="M112.1,19.1V4.7h-5.6V1.4h14.9v3.3h-5.7v14.4C115.7,19.1,112.1,19.1,112.1,19.1z"/>
	<path class="st0" d="M164.6,1.1h1.2v18h-3.6V9.7l-4.4,5.6h-1.2l-4.4-5.6v9.4h-3.6v-18h1.2l7.5,9.5L164.6,1.1z"/>
	<path class="st0" d="M179.2,19.1V1.4h11.9v3.3h-8.3v3.6h6.1v3.1h-6.1v4.5h8.6v3.3L179.2,19.1L179.2,19.1z"/>
	<g>
		<path d="M18.6,19.1l-1-2.3h-7.3l-1,2.3H5.4l8-18.1h1.2l7.9,18.1H18.6z M16.3,13.8l-2.4-6l-2.4,6H16.3z"/>
		<path d="M46.8,13.9c0,1.5-0.5,2.8-1.6,3.8c-1.1,1-2.5,1.5-4.2,1.5H33V1.3h6.3c1.7,0,3,0.5,4.1,1.4C44.4,3.6,45,4.8,45,6.3
			c0,1.3-0.4,2.4-1.3,3.2C45.7,10.2,46.8,11.7,46.8,13.9z M39,4.4h-2.5v4.1H39c0.7,0,1.3-0.2,1.7-0.5c0.4-0.4,0.6-0.9,0.6-1.5
			c0-0.6-0.2-1.1-0.6-1.5C40.3,4.6,39.8,4.4,39,4.4z M43.2,13.7c0-0.7-0.2-1.2-0.7-1.6c-0.5-0.4-1.1-0.6-1.9-0.6h-4.2V16h4.2
			c0.8,0,1.4-0.2,1.9-0.6C43,15,43.2,14.4,43.2,13.7z"/>
		<path d="M56.8,10.2c0-2.5,0.9-4.7,2.8-6.6c1.9-1.8,4.1-2.7,6.7-2.7c2.6-0.1,4.8,0.8,6.7,2.7c1.9,1.8,2.8,4,2.8,6.6
			c0,2.5-0.9,4.7-2.8,6.6c-1.9,1.8-4.1,2.7-6.7,2.7c-2.6,0.1-4.8-0.8-6.7-2.7S56.8,12.7,56.8,10.2z M72,10.2c0-1.7-0.5-3.1-1.6-4.2
			S68,4.3,66.3,4.3c-1.7,0-3,0.5-4.1,1.6c-1.1,1.1-1.6,2.5-1.6,4.2c0,1.7,0.5,3.1,1.6,4.2s2.4,1.6,4.1,1.6c1.6,0,3-0.5,4.1-1.6
			S72,11.9,72,10.2z"/>
		<path d="M86.8,11.7V1.3h3.6V12c0,1.3,0.4,2.3,1.1,3c0.7,0.7,1.7,1.1,2.8,1.1c1.2,0,2.1-0.4,2.8-1.1c0.7-0.7,1.1-1.7,1.1-3V1.3h3.6
			v10.4c0,2.3-0.7,4.2-2.1,5.6s-3.2,2.1-5.4,2.1c-2.2,0-4-0.7-5.4-2.1S86.8,14.1,86.8,11.7z"/>
		<path d="M118,19.1V4.6h-5.7V1.3h15.1v3.3h-5.7v14.5H118z"/>
		<path d="M168.4,1h1.2v18.1H166V9.6l-4.5,5.6h-1.2l-4.5-5.6v9.5h-3.6V1h1.2l7.5,9.6L168.4,1z"/>
		<path d="M181.8,19.1V1.3h12v3.3h-8.3v3.6h6.1v3.1h-6.1v4.5h8.7v3.3H181.8z"/>
	</g>
</g>
</svg>
