<?xml version="1.0" encoding="utf-8"?>
<!-- Generator: Adobe Illustrator 23.0.1, SVG Export Plug-In . SVG Version: 6.00 Build 0)  -->
<svg version="1.1" id="Livello_1" xmlns="http://www.w3.org/2000/svg" xmlns:xlink="http://www.w3.org/1999/xlink" x="0px" y="0px"
	 viewBox="0 0 200 20" style="enable-background:new 0 0 200 20;" xml:space="preserve">
<path d="M14.2,19.1l-1-2.3H6l-1,2.3H1.1L9,1.1h1.2l7.9,18H14.2z M11.9,13.8l-2.4-6l-2.4,6H11.9z"/>
<path d="M43.4,13.9c0,1.5-0.5,2.8-1.6,3.7s-2.5,1.5-4.2,1.5h-7.9V1.4H36c1.6,0,3,0.5,4,1.4s1.6,2.1,1.6,3.5c0,1.3-0.4,2.4-1.3,3.2
	C42.4,10.3,43.4,11.7,43.4,13.9z M35.7,4.5h-2.5v4h2.5c0.7,0,1.3-0.2,1.7-0.5C37.8,7.6,38,7.1,38,6.5S37.8,5.4,37.4,5
	C37,4.7,36.5,4.5,35.7,4.5z M39.9,13.7c0-0.7-0.2-1.2-0.7-1.6c-0.4-0.4-1.1-0.6-1.8-0.6h-4.1v4.4h4.1c0.8,0,1.4-0.2,1.8-0.6
	C39.7,15,39.9,14.4,39.9,13.7z"/>
<path d="M54.7,10.2c0-2.5,0.9-4.7,2.7-6.5C59.3,1.9,61.5,1,64,1.1c2.5-0.1,4.8,0.8,6.6,2.6c1.9,1.8,2.8,4,2.8,6.5s-0.9,4.7-2.8,6.5
	c-1.9,1.8-4.1,2.7-6.6,2.6c-2.5,0.1-4.8-0.8-6.6-2.6S54.7,12.7,54.7,10.2z M69.7,10.2c0-1.7-0.5-3.1-1.6-4.2s-2.4-1.6-4-1.6
	S61.1,4.9,60,6s-1.6,2.5-1.6,4.2s0.5,3.1,1.6,4.2s2.4,1.6,4.1,1.6c1.6,0,3-0.5,4-1.6C69.2,13.3,69.7,11.9,69.7,10.2z"/>
<path d="M85.7,11.8V1.4h3.6V12c0,1.3,0.4,2.2,1.1,3c0.7,0.7,1.6,1.1,2.8,1.1s2.1-0.4,2.8-1.1s1.1-1.7,1.1-3V1.4h3.6v10.3
	c0,2.3-0.7,4.1-2.1,5.5c-1.4,1.4-3.2,2.1-5.4,2.1s-4-0.7-5.4-2.1C86.4,15.9,85.7,14.1,85.7,11.8z"/>
<path d="M117.9,19.1V4.7h-5.6V1.4h14.9v3.3h-5.7v14.4H117.9z"/>
<path d="M170.4,1.1h1.2v18H168V9.7l-4.4,5.6h-1.2L158,9.7v9.4h-3.6v-18h1.2l7.5,9.5L170.4,1.1z"/>
<path d="M185,19.1V1.4h11.9v3.3h-8.3v3.6h6.1v3.1h-6.1v4.5h8.6v3.3H185V19.1z"/>
<g>
</g>
<g>
</g>
<g>
</g>
<g>
</g>
<g>
</g>
<g>
</g>
<g>
</g>
<g>
</g>
<g>
</g>
<g>
</g>
<g>
</g>
<g>
</g>
<g>
</g>
<g>
</g>
<g>
</g>
</svg>
