<?xml version="1.0" encoding="utf-8"?>
<!-- Generator: Adobe Illustrator 23.0.1, SVG Export Plug-In . SVG Version: 6.00 Build 0)  -->
<svg version="1.1" xmlns="http://www.w3.org/2000/svg" xmlns:xlink="http://www.w3.org/1999/xlink" x="0px" y="0px"
	 viewBox="0 0 200.2 20" style="enable-background:new 0 0 200.2 20;" xml:space="preserve">
<style type="text/css">
	.st0{display:none;}
</style>
<g id="Livello_2">
</g>
<g id="Livello_1">
	<path class="st0" d="M8.4,19.1l-1-2.3H0.2l-1,2.3h-3.9l7.9-18h1.2l7.9,18H8.4z M6.1,13.8l-2.4-6l-2.4,6H6.1z"/>
	<path class="st0" d="M37.6,13.9c0,1.5-0.5,2.8-1.6,3.7s-2.5,1.5-4.2,1.5h-7.9V1.4h6.3c1.6,0,3,0.5,4,1.4s1.6,2.1,1.6,3.5
		c0,1.3-0.4,2.4-1.3,3.2C36.6,10.3,37.6,11.7,37.6,13.9z M29.9,4.5h-2.5v4h2.5c0.7,0,1.3-0.2,1.7-0.5c0.4-0.4,0.6-0.9,0.6-1.5
		S32,5.4,31.6,5C31.2,4.7,30.7,4.5,29.9,4.5z M34.1,13.7c0-0.7-0.2-1.2-0.7-1.6c-0.4-0.4-1.1-0.6-1.8-0.6h-4.1v4.4h4.1
		c0.8,0,1.4-0.2,1.8-0.6C33.9,15,34.1,14.4,34.1,13.7z"/>
	<path class="st0" d="M48.9,10.2c0-2.5,0.9-4.7,2.7-6.5c1.9-1.8,4.1-2.7,6.6-2.6C60.7,1,63,1.9,64.8,3.7c1.9,1.8,2.8,4,2.8,6.5
		s-0.9,4.7-2.8,6.5c-1.9,1.8-4.1,2.7-6.6,2.6c-2.5,0.1-4.8-0.8-6.6-2.6S48.9,12.7,48.9,10.2z M63.9,10.2c0-1.7-0.5-3.1-1.6-4.2
		s-2.4-1.6-4-1.6s-3,0.5-4.1,1.6s-1.6,2.5-1.6,4.2s0.5,3.1,1.6,4.2s2.4,1.6,4.1,1.6c1.6,0,3-0.5,4-1.6
		C63.4,13.3,63.9,11.9,63.9,10.2z"/>
	<path class="st0" d="M79.9,11.8V1.4h3.6V12c0,1.3,0.4,2.2,1.1,3c0.7,0.7,1.6,1.1,2.8,1.1s2.1-0.4,2.8-1.1s1.1-1.7,1.1-3V1.4h3.6
		v10.3c0,2.3-0.7,4.1-2.1,5.5c-1.4,1.4-3.2,2.1-5.4,2.1s-4-0.7-5.4-2.1C80.6,15.9,79.9,14.1,79.9,11.8z"/>
	<path class="st0" d="M112.1,19.1V4.7h-5.6V1.4h14.9v3.3h-5.7v14.4C115.7,19.1,112.1,19.1,112.1,19.1z"/>
	<path class="st0" d="M164.6,1.1h1.2v18h-3.6V9.7l-4.4,5.6h-1.2l-4.4-5.6v9.4h-3.6v-18h1.2l7.5,9.5L164.6,1.1z"/>
	<path class="st0" d="M179.2,19.1V1.4h11.9v3.3h-8.3v3.6h6.1v3.1h-6.1v4.5h8.6v3.3L179.2,19.1L179.2,19.1z"/>
	<g>
		<path d="M9.1,19.1V1.3h6.7c1.9,0,3.4,0.5,4.6,1.6c1.2,1.1,1.8,2.4,1.8,4.2c0,1.7-0.6,3.1-1.8,4.2c-1.2,1.1-2.7,1.6-4.6,1.6h-3.1
			v6.3H9.1z M12.7,9.6h3.1c0.8,0,1.5-0.2,2-0.7c0.5-0.5,0.7-1.1,0.7-1.9c0-0.8-0.2-1.4-0.7-1.8c-0.5-0.5-1.1-0.7-2-0.7h-3.1V9.6z"/>
		<path d="M48.2,19.1h-4.1l-4.6-6.3h-2.7v6.3h-3.6V1.3h6.7c1.9,0,3.4,0.5,4.6,1.6c1.2,1.1,1.8,2.4,1.8,4.2c0,1.1-0.3,2.1-0.8,3
			c-0.5,0.9-1.3,1.6-2.3,2.1L48.2,19.1z M36.8,4.5v5.1h3.1c0.8,0,1.5-0.2,2-0.7c0.5-0.5,0.7-1.1,0.7-1.9c0-0.8-0.2-1.4-0.7-1.8
			c-0.5-0.5-1.1-0.7-2-0.7H36.8z"/>
		<path d="M57.1,10.2c0-2.5,0.9-4.7,2.8-6.6C61.8,1.8,64,0.9,66.6,1c2.6-0.1,4.8,0.8,6.7,2.7c1.9,1.8,2.8,4,2.8,6.6
			c0,2.5-0.9,4.7-2.8,6.6c-1.9,1.8-4.1,2.7-6.7,2.7c-2.6,0.1-4.8-0.8-6.7-2.7S57.1,12.7,57.1,10.2z M72.3,10.2
			c0-1.7-0.5-3.1-1.6-4.2s-2.5-1.7-4.1-1.7c-1.7,0-3,0.5-4.1,1.6c-1.1,1.1-1.6,2.5-1.6,4.2c0,1.7,0.5,3.1,1.6,4.2s2.4,1.6,4.1,1.6
			c1.6,0,3-0.5,4.1-1.6S72.3,11.9,72.3,10.2z"/>
		<path d="M85.2,19.1V16c0.9,0.1,1.5,0.1,1.8,0.1c0.9,0,1.5-0.2,1.9-0.5c0.4-0.3,0.6-0.9,0.6-1.6V1.3h3.6v13.1
			c0,1.7-0.5,2.9-1.4,3.8c-0.9,0.9-2.3,1.3-4,1.3C86.9,19.4,86.1,19.3,85.2,19.1z"/>
		<path d="M105.4,19.1V1.3h12v3.3h-8.3v3.6h6.1v3.1h-6.1v4.5h8.7v3.3H105.4z"/>
		<path d="M127.6,10.2c0-2.6,0.9-4.7,2.8-6.6c1.9-1.8,4.1-2.7,6.7-2.7c1.7,0,3.2,0.4,4.6,1.2c1.4,0.8,2.5,1.9,3.3,3.3l-2.8,1.9
			c-1.3-2-3-3-5.1-3c-1.7,0-3,0.6-4.1,1.7c-1.1,1.1-1.6,2.5-1.6,4.2c0,1.7,0.5,3.1,1.6,4.2s2.5,1.6,4.1,1.6c2.1,0,3.8-1,5.1-3
			l2.8,1.9c-0.8,1.4-1.9,2.5-3.2,3.3c-1.4,0.8-2.9,1.2-4.6,1.2c-2.6,0.1-4.9-0.8-6.7-2.7C128.4,14.9,127.5,12.7,127.6,10.2z"/>
		<path d="M160.1,19.1V4.6h-5.7V1.3h15.1v3.3h-5.7v14.5H160.1z"/>
		<path d="M178.8,15.5l2.5-1.9c1.3,1.7,2.7,2.6,4.4,2.6c0.8,0,1.4-0.2,1.9-0.5c0.5-0.4,0.7-0.8,0.7-1.4c0-0.5-0.2-0.9-0.5-1.2
			c-0.3-0.3-0.9-0.6-1.8-1l-1.9-0.9c-2.9-1.3-4.3-3-4.3-5.1c0-1.5,0.6-2.7,1.7-3.7c1.1-0.9,2.5-1.4,4.2-1.4c1.3,0,2.5,0.3,3.5,0.9
			c1,0.6,1.8,1.4,2.4,2.5L189,6.3c-0.9-1.4-2.1-2.1-3.4-2.1c-0.6,0-1.2,0.2-1.6,0.5s-0.6,0.7-0.6,1.3c0,0.4,0.1,0.8,0.4,1.1
			c0.3,0.3,0.8,0.6,1.6,1l2,0.9c1.5,0.7,2.6,1.4,3.3,2.2s1.1,1.8,1.1,3c0,1.6-0.6,2.9-1.8,3.9s-2.7,1.5-4.5,1.5
			c-1.5,0-2.8-0.4-4-1.1S179.5,16.7,178.8,15.5z"/>
	</g>
</g>
</svg>
